<?xml version="1.0" standalone="no"?>
<!DOCTYPE svg PUBLIC "-//W3C//DTD SVG 20010904//EN"
 "http://www.w3.org/TR/2001/REC-SVG-20010904/DTD/svg10.dtd">
<svg version="1.0" xmlns="http://www.w3.org/2000/svg"
 width="512.000000pt" height="512.000000pt" viewBox="0 0 512.000000 512.000000"
 preserveAspectRatio="xMidYMid meet">
<metadata>
Created by potrace 1.14, written by Peter Selinger 2001-2017
</metadata>
<g transform="translate(0.000000,512.000000) scale(0.100000,-0.100000)"
fill="#000000" stroke="none">
<path d="M2515 4774 c-22 -13 -47 -27 -55 -31 -8 -4 -17 -9 -20 -13 -3 -3 -59
-37 -125 -74 -164 -94 -203 -116 -410 -238 -99 -58 -198 -116 -221 -129 -172
-100 -265 -155 -304 -178 -25 -15 -70 -41 -100 -58 -30 -17 -100 -57 -156 -91
-55 -33 -118 -70 -140 -81 -21 -12 -52 -30 -69 -40 -16 -10 -77 -46 -135 -80
-146 -85 -138 -79 -120 -91 8 -6 35 -22 60 -36 123 -71 830 -484 860 -503 19
-11 42 -24 50 -28 8 -4 49 -27 90 -51 263 -156 585 -342 592 -342 4 0 8 -4 8
-10 0 -5 4 -10 9 -10 6 0 60 -29 121 -65 l112 -65 32 19 c17 11 43 26 56 33
23 12 115 66 383 224 59 35 112 64 117 64 6 0 10 5 10 10 0 6 4 10 9 10 7 0
115 60 186 103 53 33 102 62 120 71 18 10 277 160 388 226 24 14 103 60 177
103 74 43 142 82 150 87 70 43 208 124 240 140 22 11 40 24 40 28 0 5 -57 41
-127 82 -71 41 -171 100 -223 130 -52 31 -115 68 -140 82 -25 14 -91 53 -148
87 -57 33 -105 61 -107 61 -2 0 -39 22 -82 48 -43 27 -85 52 -93 55 -8 4 -31
17 -50 28 -107 65 -939 549 -942 548 -2 0 -21 -11 -43 -25z m172 -879 c24 -9
56 -32 73 -51 52 -60 52 -108 -1 -168 -41 -48 -107 -71 -199 -71 -96 0 -158
23 -204 77 -30 34 -34 46 -32 85 5 91 117 158 251 149 39 -2 89 -12 112 -21z"/>
<path d="M482 2435 l3 -987 205 -120 c113 -67 287 -170 388 -229 101 -60 187
-109 192 -109 6 0 10 -4 10 -10 0 -5 4 -10 8 -10 8 0 594 -342 617 -360 6 -4
30 -19 55 -32 25 -14 130 -75 234 -137 103 -61 192 -111 197 -111 5 0 9 420 9
978 l0 977 -31 15 c-17 8 -132 76 -255 150 -124 74 -245 146 -269 160 -24 14
-135 79 -247 146 -112 66 -394 234 -628 373 -234 139 -440 262 -458 273 l-32
20 2 -987z m1486 -209 c133 -69 150 -321 30 -430 -39 -35 -47 -38 -86 -33 -91
10 -151 111 -148 247 4 163 103 268 204 216z m-927 -346 c81 -72 102 -229 46
-340 -35 -71 -68 -95 -129 -95 -40 0 -52 5 -82 35 -51 48 -74 117 -72 210 5
188 129 288 237 190z"/>
<path d="M4487 3329 c-82 -49 -153 -89 -158 -89 -5 0 -9 -3 -9 -7 0 -5 -10
-13 -23 -19 -12 -6 -94 -53 -182 -106 -152 -90 -431 -256 -1095 -650 l-295
-175 -3 -981 -2 -981 82 48 c46 26 162 94 258 151 96 57 211 124 255 150 278
163 649 382 684 404 22 14 43 26 46 26 3 0 41 22 85 50 44 27 83 50 86 50 3 0
18 8 32 19 15 10 43 27 62 38 19 10 101 58 183 106 l147 88 0 984 c0 542 -1
985 -2 984 -2 0 -70 -40 -151 -90z m-245 -565 c67 -63 94 -192 64 -298 -13
-43 -29 -69 -62 -103 -44 -43 -48 -45 -91 -40 -81 9 -138 89 -150 210 -8 93
15 166 73 224 44 43 48 45 91 40 31 -3 54 -14 75 -33z m-960 -561 c118 -110
91 -378 -43 -433 -63 -27 -139 19 -175 105 -25 59 -27 168 -5 233 19 54 60
107 96 123 35 16 95 3 127 -28z m970 -331 c95 -102 85 -315 -18 -401 -34 -28
-44 -32 -84 -28 -148 16 -203 303 -82 431 36 38 59 47 107 41 31 -3 48 -13 77
-43z m-966 -553 c48 -47 69 -108 69 -204 0 -67 -5 -89 -28 -135 -35 -71 -68
-95 -130 -95 -44 0 -52 4 -87 41 -44 47 -70 121 -70 196 0 93 55 203 115 229
38 17 95 3 131 -32z"/>
</g>
</svg>
